<?xml version="1.0" encoding="UTF-8" standalone="no"?>
<!-- Created with Inkscape (http://www.inkscape.org/) -->

<svg
   xmlns:dc="http://purl.org/dc/elements/1.1/"
   xmlns:cc="http://creativecommons.org/ns#"
   xmlns:rdf="http://www.w3.org/1999/02/22-rdf-syntax-ns#"
   xmlns:svg="http://www.w3.org/2000/svg"
   xmlns="http://www.w3.org/2000/svg"
   xmlns:sodipodi="http://sodipodi.sourceforge.net/DTD/sodipodi-0.dtd"
   xmlns:inkscape="http://www.inkscape.org/namespaces/inkscape"
   version="1.1"
   id="svg18023"
   xml:space="preserve"
   width="12"
   height="12"
   viewBox="0 0 12 12"
   sodipodi:docname="favicon.jpg.svg"
   inkscape:version="0.92.3 (2405546, 2018-03-11)"><metadata
     id="metadata18029"><rdf:RDF><cc:Work
         rdf:about=""><dc:format>image/svg+xml</dc:format><dc:type
           rdf:resource="http://purl.org/dc/dcmitype/StillImage" /><dc:title></dc:title></cc:Work></rdf:RDF></metadata><defs
     id="defs18027"><linearGradient
       x1="0"
       y1="0"
       x2="1"
       y2="0"
       gradientUnits="userSpaceOnUse"
       gradientTransform="matrix(256.37988,256.37988,256.37988,-256.37988,170.32072,82.508095)"
       spreadMethod="pad"
       id="linearGradient18051"><stop
         style="stop-opacity:1;stop-color:#55bcd7"
         offset="0"
         id="stop18045" /><stop
         style="stop-opacity:1;stop-color:#005d94"
         offset="0.667685"
         id="stop18047" /><stop
         style="stop-opacity:1;stop-color:#005d94"
         offset="1"
         id="stop18049" /></linearGradient><clipPath
       clipPathUnits="userSpaceOnUse"
       id="clipPath18061"><path
         d="M 0,441.047 H 595.276 V 0 H 0 Z"
         id="path18059"
         inkscape:connector-curvature="0" /></clipPath><clipPath
       clipPathUnits="userSpaceOnUse"
       id="clipPath18069"><path
         d="m 245.227,294.022 h 51.374 v -74.394 h -51.374 z"
         id="path18067"
         inkscape:connector-curvature="0" /></clipPath><clipPath
       clipPathUnits="userSpaceOnUse"
       id="clipPath18089"><path
         d="m 356.624,292.538 h 86.691 V 178.745 h -86.691 z"
         id="path18087"
         inkscape:connector-curvature="0" /></clipPath><clipPath
       id="clipPath18249"
       clipPathUnits="userSpaceOnUse"><path
         inkscape:connector-curvature="0"
         id="path18247"
         d="M 0,441.047 H 595.276 V 0 H 0 Z" /></clipPath><clipPath
       id="clipPath18257"
       clipPathUnits="userSpaceOnUse"><path
         inkscape:connector-curvature="0"
         id="path18255"
         d="m 245.227,294.022 h 51.374 v -74.394 h -51.374 z" /></clipPath><clipPath
       id="clipPath18277"
       clipPathUnits="userSpaceOnUse"><path
         inkscape:connector-curvature="0"
         id="path18275"
         d="m 356.624,292.538 h 86.691 V 178.745 h -86.691 z" /></clipPath><clipPath
       id="clipPath18249-2"
       clipPathUnits="userSpaceOnUse"><path
         inkscape:connector-curvature="0"
         id="path18247-1"
         d="M 0,441.047 H 595.276 V 0 H 0 Z" /></clipPath><clipPath
       id="clipPath18257-7"
       clipPathUnits="userSpaceOnUse"><path
         inkscape:connector-curvature="0"
         id="path18255-2"
         d="m 245.227,294.022 h 51.374 v -74.394 h -51.374 z" /></clipPath><clipPath
       id="clipPath18277-8"
       clipPathUnits="userSpaceOnUse"><path
         inkscape:connector-curvature="0"
         id="path18275-6"
         d="m 356.624,292.538 h 86.691 V 178.745 h -86.691 z" /></clipPath></defs><sodipodi:namedview
     pagecolor="#ffffff"
     bordercolor="#666666"
     borderopacity="1"
     objecttolerance="10"
     gridtolerance="10"
     guidetolerance="10"
     inkscape:pageopacity="0"
     inkscape:pageshadow="2"
     inkscape:window-width="1920"
     inkscape:window-height="1001"
     id="namedview18025"
     showgrid="false"
     inkscape:zoom="25.684395"
     inkscape:cx="23.991287"
     inkscape:cy="14.582846"
     inkscape:window-x="-9"
     inkscape:window-y="-9"
     inkscape:window-maximized="1"
     inkscape:current-layer="g18219" /><g
     id="g18031"
     inkscape:groupmode="layer"
     inkscape:label="LOGO MAC FINAL"
     transform="matrix(1.3333333,0,0,-1.3333333,0,11.99999)"><g
       inkscape:label="LOGO MAC FINAL"
       id="g18219"
       transform="translate(-19.119062,90.185079)"><g
         id="g18576"
         transform="matrix(0.02482231,0,0,0.02482238,15.899217,-88.741484)"><g
           transform="translate(13.545057,-88.868775)"
           id="g18221"><g
             id="g18223"><g
               id="g18229"><g
                 id="g18231"><path
                   d="m 117.222,210.698 c 0,-100.123 81.166,-181.288 181.289,-181.288 v 0 c 100.122,0 181.288,81.165 181.288,181.288 v 0 c 0,100.122 -81.166,181.288 -181.288,181.288 v 0 c -100.123,0 -181.289,-81.166 -181.289,-181.288"
                   style="fill:url(#linearGradient18051);stroke:none"
                   id="path18241"
                   inkscape:connector-curvature="0" /></g></g></g></g><g
           transform="matrix(1,0,0,1.0612935,13.54484,-150.43222)"
           clip-path="url(#clipPath18249-2)"
           id="g18245"><g
             id="g18251"><g
               id="g18253" /><g
               id="g18265"><g
                 style="opacity:0.64999402"
                 id="g18263"
                 clip-path="url(#clipPath18257-7)"><g
                   id="g18261"
                   transform="translate(264.2686,223.7032)"><path
                     inkscape:connector-curvature="0"
                     id="path18259"
                     style="fill:#ffffff;fill-opacity:1;fill-rule:nonzero;stroke:none"
                     d="m 0,0 0.006,0.022 c 2.232,7.693 7.072,13.933 15.229,19.639 6.524,4.564 12.145,8.989 17.097,13.45 -0.214,0.202 -0.437,0.405 -0.649,0.608 -5.997,5.741 -10.206,12.469 -12.866,20.569 -1.691,5.15 -3.15,10.516 -4.366,16.03 C 12.955,61.133 8.315,53.554 0.639,47.794 L -2.066,45.77 c -5.212,-3.9 -10.602,-7.931 -15.689,-12.128 -0.424,-0.35 -0.856,-0.718 -1.286,-1.083 3.947,-3.627 7.812,-7.967 10.374,-13.36 2.636,-5.55 4.679,-11.095 6.071,-16.478 0.58,-2.243 1.061,-4.521 1.496,-6.797 0.199,0.97 0.472,1.91 0.739,2.817 C -0.238,-0.84 -0.115,-0.421 0,0" /></g></g></g></g><g
             transform="translate(243.8213,317.8087)"
             id="g18267"><path
               inkscape:connector-curvature="0"
               id="path18269"
               style="fill:#ffffff;fill-opacity:1;fill-rule:nonzero;stroke:none"
               d="m 0,0 c 0.29,-0.015 0.58,-0.023 0.868,-0.053 0.486,-0.049 0.971,-0.128 1.455,-0.218 0.047,-0.01 0.095,-0.014 0.142,-0.024 0.565,-0.117 1.123,-0.263 1.671,-0.441 4.477,-1.452 8.14,-4.675 10.315,-9.075 2.028,-4.103 2.507,-8.866 1.251,-12.429 -2.656,-7.526 -9.277,-12.216 -16.57,-12.36 -0.114,-0.002 -0.226,-0.013 -0.341,-0.013 -1.698,0 -3.429,0.247 -5.153,0.762 -4.213,1.262 -8.168,4.806 -10.322,9.249 -2.014,4.157 -2.277,8.616 -0.744,12.568 0.994,3.987 3.821,7.534 7.769,9.744 2.236,1.252 4.658,1.999 7.088,2.24 0.226,0.024 0.453,0.028 0.679,0.042 0.348,0.021 0.695,0.045 1.042,0.044 C -0.566,0.036 -0.284,0.014 0,0 m -40.034,-111 c -1.418,-4.333 -4.48,-7.878 -8.624,-9.981 -2.507,-1.273 -5.209,-1.916 -7.916,-1.916 -1.796,0 -3.594,0.283 -5.34,0.854 -4.391,1.437 -7.973,4.537 -10.085,8.73 -2.113,4.197 -2.471,8.924 -1.008,13.312 3.043,9.128 12.486,13.818 21.968,10.906 4.264,-1.308 7.787,-4.353 9.92,-8.574 2.158,-4.269 2.553,-9.126 1.085,-13.331 m 57.63,121.486 c -5.877,3.884 -11.851,5.887 -17.882,6.028 -0.116,0.002 -0.232,0.013 -0.348,0.013 -0.232,0.003 -0.463,-0.015 -0.695,-0.018 -5.878,-0.072 -11.806,-1.898 -17.748,-5.518 -8.631,-5.259 -13.782,-13.58 -15.75,-25.437 -0.252,-1.523 -0.53,-3.033 -0.819,-4.538 -0.309,-1.612 -0.636,-3.215 -0.986,-4.803 -1.218,-5.515 -2.676,-10.88 -4.367,-16.03 -2.66,-8.101 -6.869,-14.829 -12.866,-20.571 -5.762,-5.517 -12.452,-10.92 -20.451,-16.515 -7.564,-5.289 -12.033,-11.011 -14.065,-18.005 -0.119,-0.434 -0.245,-0.865 -0.372,-1.297 -0.269,-0.913 -0.523,-1.775 -0.696,-2.647 -3.281,-16.449 5.82,-32.549 21.638,-38.284 8.99,-3.259 19.067,-2.379 27.645,2.413 8.544,4.774 14.549,12.852 16.477,22.164 0.562,2.716 1.042,5.512 1.506,8.215 0.732,4.267 1.49,8.679 2.597,12.959 1.392,5.384 3.435,10.929 6.071,16.479 2.562,5.393 6.427,9.732 10.374,13.359 0.377,0.346 0.754,0.672 1.131,1.005 0.382,0.338 0.762,0.677 1.143,1.002 0.554,0.474 1.106,0.942 1.65,1.391 5.142,4.242 10.561,8.295 15.801,12.215 l 2.702,2.023 c 7.161,5.373 11.444,12.459 12.731,21.061 2.15,14.378 -2.703,25.595 -14.421,33.336" /></g><g
             id="g18271"><g
               id="g18273" /><g
               id="g18285"><g
                 style="opacity:0.64999402"
                 id="g18283"
                 clip-path="url(#clipPath18277-8)"><g
                   id="g18281"
                   transform="translate(401.8574,196.8282)"><path
                     inkscape:connector-curvature="0"
                     id="path18279"
                     style="fill:#ffffff;fill-opacity:1;fill-rule:nonzero;stroke:none"
                     d="m 0,0 c -4.144,2.104 -7.206,5.648 -8.624,9.982 -1.467,4.205 -1.072,9.062 1.085,13.33 2.134,4.22 5.657,7.266 9.92,8.574 1.4,0.43 2.797,0.675 4.175,0.784 0.167,0.015 0.334,0.023 0.502,0.033 0.338,0.017 0.675,0.03 1.011,0.029 0.335,10e-4 0.673,-0.012 1.012,-0.029 0.167,-0.01 0.334,-0.018 0.5,-0.033 C 16.295,32.083 22.089,27.759 24.35,20.979 25.812,16.592 25.454,11.865 23.341,7.669 21.229,3.475 17.648,0.374 13.257,-1.062 11.56,-1.618 9.814,-1.896 8.069,-1.911 8.019,-1.912 7.967,-1.917 7.917,-1.917 5.209,-1.917 2.507,-1.273 0,0 m -45.233,59.163 c 3.848,-3.574 7.59,-7.826 10.09,-13.089 2.636,-5.547 4.678,-11.091 6.072,-16.478 0.579,-2.242 1.061,-4.52 1.496,-6.795 0.306,-1.606 0.589,-3.205 0.863,-4.793 0.079,-0.457 0.16,-0.917 0.238,-1.371 0.464,-2.703 0.944,-5.499 1.506,-8.215 1.927,-9.313 7.932,-17.391 16.475,-22.164 3.361,-1.878 6.953,-3.145 10.619,-3.808 0.022,-0.004 0.043,-0.007 0.065,-0.011 0.52,-0.095 1.042,-0.175 1.565,-0.245 0.19,-0.024 0.379,-0.043 0.569,-0.065 0.374,-0.043 0.749,-0.083 1.125,-0.113 0.266,-0.021 0.533,-0.034 0.8,-0.048 0.312,-0.018 0.624,-0.036 0.937,-0.044 0.3,-0.008 0.601,-0.007 0.901,-0.007 0.283,0 0.566,-0.001 0.849,0.006 0.33,0.009 0.659,0.028 0.989,0.047 0.249,0.013 0.499,0.025 0.749,0.045 0.393,0.031 0.784,0.073 1.176,0.119 0.173,0.019 0.346,0.036 0.518,0.059 0.539,0.071 1.076,0.153 1.612,0.251 0.007,0.002 0.014,0.003 0.021,0.004 1.744,0.322 3.467,0.786 5.151,1.397 15.82,5.734 24.92,21.835 21.639,38.284 -0.174,0.869 -0.427,1.73 -0.695,2.642 -0.127,0.432 -0.254,0.866 -0.373,1.3 -2.032,6.994 -6.502,12.717 -14.065,18.006 -6.714,4.697 -12.496,9.257 -17.59,13.864 -0.374,0.338 -0.746,0.676 -1.112,1.015 -0.372,0.343 -0.737,0.686 -1.101,1.03 -0.214,0.203 -0.437,0.405 -0.648,0.608 -5.998,5.741 -10.206,12.469 -12.866,20.569 -1.539,4.687 -2.882,9.554 -4.03,14.547 -1.738,-8.522 -6.284,-15.594 -13.543,-21.041 l -2.705,-2.024 c -5.212,-3.9 -10.602,-7.931 -15.689,-12.128 -0.53,-0.438 -1.069,-0.893 -1.608,-1.354" /></g></g></g></g><g
             transform="translate(282.5332,217.8077)"
             id="g18287"><path
               inkscape:connector-curvature="0"
               id="path18289"
               style="fill:#ffffff;fill-opacity:1;fill-rule:nonzero;stroke:none"
               d="m 0,0 c 3.042,9.128 12.487,13.819 21.969,10.906 4.263,-1.308 7.786,-4.353 9.92,-8.574 2.159,-4.273 2.553,-9.138 1.09,-13.314 -1.416,-4.341 -4.48,-7.892 -8.63,-9.998 -2.507,-1.273 -5.208,-1.916 -7.915,-1.916 -1.796,0 -3.595,0.283 -5.341,0.854 -4.391,1.437 -7.972,4.537 -10.084,8.73 C -1.104,-9.115 -1.462,-4.388 0,0 m 88.709,77.761 c -1.604,-4.545 -4.658,-8.047 -8.427,-10.15 -0.159,-0.095 -0.321,-0.18 -0.482,-0.269 -0.067,-0.035 -0.134,-0.069 -0.201,-0.103 -2.076,-1.04 -4.348,-1.665 -6.703,-1.814 -0.154,-0.009 -0.307,-0.012 -0.46,-0.017 -0.2,-0.007 -0.398,-0.018 -0.599,-0.019 -0.013,0 -0.026,-10e-4 -0.039,-10e-4 -1.697,0 -3.429,0.247 -5.153,0.763 -0.876,0.263 -1.735,0.644 -2.575,1.092 -0.064,0.031 -0.127,0.064 -0.19,0.096 -0.165,0.091 -0.329,0.178 -0.492,0.275 -2.919,1.745 -5.481,4.517 -7.064,7.785 -2.014,4.157 -2.278,8.616 -0.744,12.568 0.994,3.987 3.82,7.534 7.768,9.744 2.67,1.494 5.603,2.276 8.5,2.325 1.803,0.03 3.593,-0.22 5.296,-0.771 4.477,-1.452 8.14,-4.675 10.314,-9.075 2.029,-4.103 2.508,-8.866 1.251,-12.429 M 5.197,-37.135 c 8.99,-3.258 19.066,-2.38 27.645,2.413 8.543,4.774 14.549,12.852 16.476,22.164 0.562,2.716 1.042,5.512 1.506,8.215 0.733,4.267 1.49,8.679 2.597,12.959 1.392,5.384 3.435,10.929 6.071,16.479 2.501,5.263 6.243,9.515 10.091,13.088 0.373,0.346 0.745,0.68 1.119,1.013 0.378,0.339 0.757,0.684 1.135,1.01 0.656,0.566 1.309,1.114 1.954,1.646 5.142,4.242 10.56,8.295 15.801,12.215 l 2.7,2.023 c 7.162,5.372 11.445,12.459 12.732,21.061 0.459,3.075 0.579,5.995 0.4,8.778 -0.659,10.229 -5.608,18.472 -14.82,24.558 -6.101,4.031 -12.305,6.046 -18.568,6.046 -0.118,0 -0.236,-0.012 -0.354,-0.013 -5.879,-0.071 -11.808,-1.906 -17.751,-5.528 C 45.392,105.79 40.263,97.584 38.25,85.927 38.228,85.801 38.202,85.681 38.181,85.555 37.806,83.297 37.39,81.059 36.936,78.843 36.653,77.462 36.35,76.093 36.037,74.73 34.89,69.737 33.547,64.87 32.008,60.184 29.348,52.083 25.14,45.355 19.143,39.614 13.38,34.096 6.69,28.693 -1.309,23.098 -8.876,17.806 -13.346,12.081 -15.371,5.104 -15.49,4.667 -15.618,4.231 -15.746,3.796 -16.015,2.883 -16.269,2.021 -16.442,1.15 -19.723,-15.3 -10.622,-31.4 5.197,-37.135" /></g></g></g></g></g></svg>